<svg id="svg2" xmlns="http://www.w3.org/2000/svg" viewBox="0 0 450 90"><path d="M105,25H95Q93.72,15,85.56,15q-5.28,0-7.92,2.52T75,25a10.75,10.75,0,0,0,2.88,7.08L99.12,55.88Q105,62.48,105,70V75A20.18,20.18,0,0,1,85,95H75q-10,0-15-5T55,75H65v1.68a7.12,7.12,0,0,0,3.12,6.24A11.76,11.76,0,0,0,75,85q5.28,0,7.62-2.58T85,75a10.44,10.44,0,0,0-2.88-7.08L60.84,44.12Q55,37.64,55,30V25a19.36,19.36,0,0,1,5.88-14.1A19.2,19.2,0,0,1,75,5H85Q103.8,5,105,25Z" transform="translate(-54.96 -5)" style="fill:#fff"/><path d="M145,95V55q-20-2.4-20-20V5h20V35a10,10,0,0,0,10,10A9.72,9.72,0,0,0,162.06,42,9.58,9.58,0,0,0,165,35V5h19.92V35q0,17.64-19.92,20V95Z" transform="translate(-54.96 -5)" style="fill:#fff"/><path d="M255,25H245Q243.72,15,235.56,15q-5.28,0-7.92,2.52T225,25a10.75,10.75,0,0,0,2.88,7.08l21.24,23.76Q255,62.48,255,70V75a20.18,20.18,0,0,1-20,20H225q-10,0-15-5T205,75H215v1.68a7.12,7.12,0,0,0,3.12,6.24A11.76,11.76,0,0,0,225,85q5.28,0,7.62-2.58T235,75a10.44,10.44,0,0,0-2.88-7.08L210.84,44.12Q205,37.64,205,30V25a19.36,19.36,0,0,1,5.88-14.1A19.2,19.2,0,0,1,225,5h10Q253.8,5,255,25Z" transform="translate(-54.96 -5)" style="fill:#fff"/><path d="M285,95V15H265V5h60V15h-20V95Z" transform="translate(-54.96 -5)" style="fill:#fff"/><path d="M334.92,95V5h50V15H355V45h20V55H355V85h30V95Z" transform="translate(-54.96 -5)" style="fill:#fff"/><path d="M404.88,95V5h4.68l42.72,42.6L494.88,5H505V95h-20V40l-35,35L415,40V95Z" transform="translate(-54.96 -5)" style="fill:#fff"/></svg>